<svg width="72" height="40" viewBox="0 0 72 40" fill="none" xmlns="http://www.w3.org/2000/svg">
<path d="M55.7475 0C56.3105 0 56.7664 0.0932586 56.7664 0.210695V0.303955L56.6386 2.69413L56.756 5.74057C56.7595 5.85801 56.3036 5.95126 55.7371 5.95126H44.8742C44.3078 5.95126 43.8519 5.85455 43.8553 5.74057L43.9727 2.39018L43.8242 0.21415V0.20724C43.8346 0.0932578 44.2905 0 44.8432 0H55.7406H55.7475Z" fill="#FEFFFF"/>
<path d="M38.5537 16.2063C39.0718 16.5897 39.804 16.2063 39.7971 15.5639C39.735 10.3379 39.6072 5.80973 39.4137 1.98614C39.3792 1.2988 39.3965 0.849775 39.4621 0.645988C39.5277 0.442201 39.7177 0.272955 40.0285 0.141702C40.2876 0.0311739 40.5397 8.63317e-05 40.7815 0.0484425C41.0233 0.0967987 41.1856 0.210781 41.2616 0.393844C41.3342 0.56309 41.3549 2.00687 41.3273 4.72863L41.2823 7.73362L41.0129 32.0948C41.006 32.7476 40.2496 33.1033 39.7419 32.6958L32.3434 26.7445L26.8273 22.5099C26.3403 22.1369 25.6322 22.4443 25.5735 23.0556L25.0623 28.3506L24.1677 38.7541L24.1332 39.2722C24.0883 39.9388 23.28 40.2428 22.8034 39.773L16.3168 33.3417L9.58488 26.741C6.23104 23.4183 3.11207 20.4755 0.224511 17.916L0 17.7123L11.6469 12.7281C11.944 12.6003 12.2859 12.6694 12.5104 12.8974L15.6329 16.0682C18.5066 18.9419 20.8415 21.2112 22.6411 22.876C23.1142 23.3147 23.8845 23.0176 23.9467 22.3752L24.5718 15.7987L24.8309 12.7523L25.0105 10.7006L25.311 7.26733C25.311 7.26733 25.311 7.25697 25.311 7.25006C25.3559 6.61797 26.102 6.30366 26.589 6.70778L30.72 10.1342C33.3174 12.2515 35.9252 14.279 38.5433 16.2132L38.5537 16.2063Z" fill="#FEFFFF"/>
<path d="M43.8301 8.70756C43.8266 8.30689 44.1893 7.97876 44.6349 7.97876H54.3407C57.0866 7.97876 59.1521 8.09965 60.5406 8.33798C63.967 8.92516 66.7337 10.5658 68.8406 13.2634C70.4951 15.3842 71.3206 17.7191 71.3206 20.2716C71.3206 22.8241 70.4674 25.2385 68.7612 27.3696C66.7095 29.9463 64.0292 31.5455 60.7237 32.1672C59.8705 32.3226 59.1107 32.4194 58.444 32.4539C57.7774 32.4884 56.3095 32.5092 54.0436 32.5092H44.6936C44.248 32.5092 43.8854 32.1845 43.8888 31.7838L43.9441 20.6515L43.8301 8.71101V8.70756ZM56.8414 9.10822C56.4062 9.11859 56.0608 9.43635 56.0573 9.82666L55.9433 23.5736L56.0504 30.6302C56.0573 31.0308 56.4234 31.3521 56.869 31.3452C58.2402 31.321 59.2523 31.2623 59.9085 31.1655C60.6891 31.0516 61.5837 30.796 62.5992 30.4022C64.9859 29.48 66.858 27.9948 68.2189 25.9465C69.4036 24.185 69.9977 22.2818 69.9977 20.2336C69.9977 18.0058 69.3 15.9575 67.9011 14.0889C65.4108 10.7696 61.7253 9.11168 56.8379 9.11168L56.8414 9.10822Z" fill="#FEFFFF"/>
</svg>
