<?xml version="1.0" encoding="UTF-8"?>
<svg id="Layer_2" data-name="Layer 2" xmlns="http://www.w3.org/2000/svg" viewBox="0 0 284.33 284.33">
  <defs>
    <style>
      .cls-1 {
        fill: #16273d;
      }

      .cls-2 {
        fill: #78c3ed;
      }
    </style>
  </defs>
  <g id="Layer_1-2" data-name="Layer 1">
    <g>
      <circle class="cls-1" cx="142.17" cy="142.17" r="142.17"/>
      <g>
        <path class="cls-2" d="m200.31,84.28c1.63,0,2.95.27,2.95.61v.27l-.37,6.92.34,8.82c.01.34-1.31.61-2.95.61h-31.45c-1.64,0-2.96-.28-2.95-.61l.34-9.7-.43-6.3v-.02c.03-.33,1.35-.6,2.95-.6h31.55Z"/>
        <path class="cls-2" d="m150.53,131.2c1.5,1.11,3.62,0,3.6-1.86-.18-15.13-.55-28.24-1.11-39.31-.1-1.99-.05-3.29.14-3.88.19-.59.74-1.08,1.64-1.46.75-.32,1.48-.41,2.18-.27.7.14,1.17.47,1.39,1,.21.49.27,4.67.19,12.55l-.13,8.7-.78,70.53c-.02,1.89-2.21,2.92-3.68,1.74l-21.42-17.23-15.97-12.26c-1.41-1.08-3.46-.19-3.63,1.58l-1.48,15.33-2.59,30.12-.1,1.5c-.13,1.93-2.47,2.81-3.85,1.45l-18.78-18.62-19.49-19.11c-9.71-9.62-18.74-18.14-27.1-25.55l-.65-.59,33.72-14.43c.86-.37,1.85-.17,2.5.49l9.04,9.18c8.32,8.32,15.08,14.89,20.29,19.71,1.37,1.27,3.6.41,3.78-1.45l1.81-19.04.75-8.82.52-5.94.87-9.94s0-.03,0-.05c.13-1.83,2.29-2.74,3.7-1.57l11.96,9.92c7.52,6.13,15.07,12,22.65,17.6Z"/>
        <path class="cls-2" d="m165.81,109.49c-.01-1.16,1.04-2.11,2.33-2.11h28.1c7.95,0,13.93.35,17.95,1.04,9.92,1.7,17.93,6.45,24.03,14.26,4.79,6.14,7.18,12.9,7.18,20.29s-2.47,14.38-7.41,20.55c-5.94,7.46-13.7,12.09-23.27,13.89-2.47.45-4.67.73-6.6.83-1.93.1-6.18.16-12.74.16h-27.07c-1.29,0-2.34-.94-2.33-2.1l.16-32.23-.33-34.57Zm37.67,1.16c-1.26.03-2.26.95-2.27,2.08l-.33,39.8.31,20.43c.02,1.16,1.08,2.09,2.37,2.07,3.97-.07,6.9-.24,8.8-.52,2.26-.33,4.85-1.07,7.79-2.21,6.91-2.67,12.33-6.97,16.27-12.9,3.43-5.1,5.15-10.61,5.15-16.54,0-6.45-2.02-12.38-6.07-17.79-7.21-9.61-17.88-14.41-32.03-14.41h0Z"/>
      </g>
    </g>
  </g>
</svg>