<svg width="42" height="40" viewBox="0 0 42 40" fill="none" xmlns="http://www.w3.org/2000/svg">
<path d="M38.5537 16.2063C39.0718 16.5897 39.804 16.2063 39.7971 15.5639C39.735 10.3379 39.6072 5.80973 39.4137 1.98614C39.3792 1.2988 39.3965 0.849775 39.4621 0.645988C39.5277 0.442201 39.7177 0.272955 40.0285 0.141702C40.2876 0.0311739 40.5397 8.63317e-05 40.7815 0.0484425C41.0233 0.0967987 41.1856 0.210781 41.2616 0.393844C41.3342 0.56309 41.3549 2.00687 41.3273 4.72863L41.2823 7.73362L41.0129 32.0948C41.006 32.7476 40.2496 33.1033 39.7419 32.6958L32.3434 26.7445L26.8273 22.5099C26.3403 22.1369 25.6322 22.4443 25.5735 23.0556L25.0623 28.3506L24.1677 38.7541L24.1332 39.2722C24.0883 39.9388 23.28 40.2428 22.8034 39.773L16.3168 33.3417L9.58488 26.741C6.23104 23.4183 3.11207 20.4755 0.224511 17.916L0 17.7123L11.6469 12.7281C11.944 12.6003 12.2859 12.6694 12.5104 12.8974L15.6329 16.0682C18.5066 18.9419 20.8415 21.2112 22.6411 22.876C23.1142 23.3147 23.8845 23.0176 23.9467 22.3752L24.5718 15.7987L24.8309 12.7523L25.0105 10.7006L25.311 7.26733C25.311 7.26733 25.311 7.25697 25.311 7.25006C25.3559 6.61797 26.102 6.30366 26.589 6.70778L30.72 10.1342C33.3174 12.2515 35.9252 14.279 38.5433 16.2132L38.5537 16.2063Z" fill="#FEFFFF"/>
</svg>
